# xmcd
#
# Track frame offsets: 
#        150
#        18409
#        36039
#        54049
#        67040
#        87303
#        99699
#        113981
#        132395
#        147587
#
# Disc length: 2174 seconds
#
# Revision: 0
# Processed by: cddbd v1.4PL0 Copyright (c) Steve Scherf et al.
# Submitted via: ExactAudioCopy v0.90b4
#
DISCID=8b087c0a
DTITLE=Mila Mason - Stained Glass Window
DYEAR=1900
DGENRE=Country
TTITLE0=Maybe, Maybe Not
TTITLE1=What Are The Odds
TTITLE2=Stained Glass Window
TTITLE3=Love Anymore
TTITLE4=Somebody Must Love Me
TTITLE5=Blame It On Me
TTITLE6=The Day Will Come
TTITLE7=Unlove You
TTITLE8=Loveazy
TTITLE9=Standing In My Own Way
EXTD=
EXTT0=
EXTT1=
EXTT2=
EXTT3=
EXTT4=
EXTT5=
EXTT6=
EXTT7=
EXTT8=
EXTT9=
PLAYORDER=
